<?xml version="1.0" encoding="iso-8859-1"?>
<!-- Generator: Adobe Illustrator 19.0.0, SVG Export Plug-In . SVG Version: 6.00 Build 0)  -->
<svg version="1.1" id="Layer_1" xmlns="http://www.w3.org/2000/svg" xmlns:xlink="http://www.w3.org/1999/xlink" x="0px" y="0px"
	 viewBox="0 0 392.541 392.541" style="enable-background:new 0 0 392.541 392.541;" xml:space="preserve">
<path style="fill:#FFC10D;" d="M141.731,60.286l-33.422-33.422c-7.434-7.046-18.683-6.594-24.76,0l-56.63,56.63
	c-5.883,6.271-7.434,16.743,0,24.76l33.487,33.487L141.731,60.286z"/>
<g>
	<path style="fill:#56ACE0;" d="M108.762,124.156l-32.97,32.97l176.356,176.356c5.883-15.321,14.287-29.156,24.63-41.244
		L108.762,124.156z"/>
	<path style="fill:#56ACE0;" d="M292.164,276.787c12.154-10.343,26.053-18.747,41.244-24.63L157.182,75.801l-32.97,32.97
		L292.164,276.787z"/>
</g>
<path style="fill:#FFC10D;" d="M270.96,345.764l96.388,21.398l-21.398-96.388C310.523,282.863,282.984,310.467,270.96,345.764z"/>
<path style="fill:#194F82;" d="M392.236,379.187c0,0-27.733-124.574-27.733-124.638c-0.517-2.133-1.616-3.685-2.844-5.107
	L123.63,11.477c-15.515-15.709-40.21-14.739-55.531,0l-56.63,56.566c-14.869,15.451-15.709,39.046,0,55.531l238.028,238.028
	c1.422,1.422,3.168,2.327,5.042,2.844l124.703,27.733C386.483,394.055,394.176,386.944,392.236,379.187z M333.538,252.092
	c-15.321,5.883-29.22,14.287-41.244,24.63L124.212,108.641l32.97-32.97L333.538,252.092z M26.919,108.253
	c-7.434-7.952-5.883-18.489,0-24.76l56.63-56.63c6.012-6.594,17.325-7.046,24.76,0l33.487,33.487l-81.455,81.325L26.919,108.253z
	 M252.148,333.482L75.857,157.126l32.97-32.97l168.016,168.016C266.37,304.261,258.03,318.16,252.148,333.482z M270.96,345.764
	c12.024-35.362,39.564-62.901,74.861-74.925l21.398,96.388L270.96,345.764z"/>
<g>
</g>
<g>
</g>
<g>
</g>
<g>
</g>
<g>
</g>
<g>
</g>
<g>
</g>
<g>
</g>
<g>
</g>
<g>
</g>
<g>
</g>
<g>
</g>
<g>
</g>
<g>
</g>
<g>
</g>
</svg>
